<svg width="20" height="16" viewBox="0 0 20 16" fill="none" xmlns="http://www.w3.org/2000/svg">
<path d="M19 0.6875H1C0.850816 0.6875 0.707742 0.746763 0.602252 0.852252C0.496763 0.957742 0.4375 1.10082 0.4375 1.25V14C0.4375 14.3481 0.575781 14.6819 0.821922 14.9281C1.06806 15.1742 1.4019 15.3125 1.75 15.3125H18.25C18.5981 15.3125 18.9319 15.1742 19.1781 14.9281C19.4242 14.6819 19.5625 14.3481 19.5625 14V1.25C19.5625 1.10082 19.5032 0.957742 19.3977 0.852252C19.2923 0.746763 19.1492 0.6875 19 0.6875ZM17.5563 1.8125L10 8.74062L2.44375 1.8125H17.5563ZM18.25 14.1875H1.75C1.70027 14.1875 1.65258 14.1677 1.61742 14.1326C1.58225 14.0974 1.5625 14.0497 1.5625 14V2.525L9.61563 9.9125C9.72085 10.008 9.85788 10.0609 10 10.0609C10.1421 10.0609 10.2791 10.008 10.3844 9.9125L18.4375 2.525V14C18.4375 14.0497 18.4177 14.0974 18.3826 14.1326C18.3474 14.1677 18.2997 14.1875 18.25 14.1875Z" fill="#EFE7D2"/>
</svg>
