<svg width="19" height="19" viewBox="0 0 19 19" fill="none" xmlns="http://www.w3.org/2000/svg">
<path d="M13.5 18.8125C6.15938 18.8125 0.1875 12.8406 0.1875 5.49997C0.188825 4.2678 0.638658 3.07825 1.45297 2.15352C2.26729 1.22879 3.39039 0.63212 4.6125 0.474968C4.89371 0.442048 5.17803 0.500947 5.42302 0.642873C5.66801 0.784799 5.86054 1.00214 5.97188 1.26247L7.85625 5.65934C7.94173 5.85828 7.97703 6.07518 7.95905 6.29096C7.94107 6.50674 7.87035 6.71479 7.75313 6.89684L6.1875 9.27809C6.17203 9.30495 6.16311 9.33508 6.16148 9.36603C6.15985 9.39699 6.16556 9.42789 6.17813 9.45622C6.89825 10.9327 8.0934 12.1246 9.57188 12.8406C9.60058 12.8535 9.63218 12.8585 9.66347 12.8552C9.69475 12.8519 9.72461 12.8404 9.75 12.8218L12.1031 11.2562C12.2834 11.1351 12.4912 11.0613 12.7075 11.0417C12.9238 11.022 13.1415 11.0571 13.3406 11.1437L17.7375 13.0281C17.9978 13.1394 18.2152 13.332 18.3571 13.5769C18.499 13.8219 18.5579 14.1063 18.525 14.3875C18.3678 15.6096 17.7712 16.7327 16.8464 17.547C15.9217 18.3613 14.7322 18.8111 13.5 18.8125ZM4.77188 1.59059H4.75313C3.8036 1.71541 2.93158 2.18041 2.29886 2.89933C1.66614 3.61825 1.31568 4.54228 1.3125 5.49997C1.31498 8.73153 2.59982 11.83 4.88488 14.1151C7.16994 16.4002 10.2684 17.685 13.5 17.6875C14.4577 17.6843 15.3817 17.3338 16.1006 16.7011C16.8196 16.0684 17.2846 15.1964 17.4094 14.2468C17.4126 14.2077 17.4035 14.1686 17.3833 14.135C17.3631 14.1014 17.3329 14.0749 17.2969 14.0593L12.9 12.175C12.8709 12.1638 12.8396 12.1597 12.8087 12.1629C12.7777 12.1662 12.748 12.1767 12.7219 12.1937L10.3781 13.7593C10.1884 13.884 9.96988 13.958 9.74344 13.9745C9.517 13.9909 9.29012 13.9491 9.08438 13.8531C7.37909 13.0229 5.99989 11.647 5.16563 9.94372C5.0682 9.74041 5.02478 9.51544 5.03956 9.29048C5.05434 9.06552 5.12681 8.84816 5.25 8.65934L6.80625 6.27809C6.82483 6.2527 6.83635 6.22285 6.83964 6.19156C6.84294 6.16027 6.83788 6.12867 6.825 6.09997L4.94063 1.70309C4.92625 1.67013 4.90269 1.642 4.87277 1.62206C4.84285 1.60211 4.80783 1.59119 4.77188 1.59059Z" fill="#EFE7D2"/>
</svg>
